<svg width="1024" height="768" viewBox="0 0 1024 768" fill="none" xmlns="http://www.w3.org/2000/svg">
<path d="M512 677H7.85631C194.223 627.691 294.14 520.874 334.59 413.933C340.072 399.441 346.017 383.046 352.373 365.518C369.736 317.638 390.165 261.303 412.59 212.186C427.906 178.639 444.124 148.529 460.89 126.819C477.699 105.054 494.854 92 512 92C529.146 92 546.301 105.054 563.11 126.819C579.876 148.529 596.094 178.639 611.41 212.186C633.835 261.303 654.264 317.638 671.627 365.518C677.983 383.046 683.928 399.441 689.41 413.933C729.86 520.874 829.777 627.691 1016.14 677H512Z" fill="black" stroke="#848484" stroke-width="2"/>
</svg>
